<svg viewBox="15.27027027027027 6.199999999999999 69.72972972972973 88.02000000000001" version="1.1" xmlns="http://www.w3.org/2000/svg" style="max-height: 500px" width="69.72972972972973" height="88.02000000000001">
 <path fill-rule="evenodd" d="m84.375 10.938c0-2.5859-2.1016-4.6875-4.6875-4.6875h-59.375c-2.5859 0-4.6875 2.1016-4.6875 4.6875v78.125c0 2.5859 2.1016 4.6875 4.6875 4.6875h59.375c2.5859 0 4.6875-2.1016 4.6875-4.6875zm-3.125 0v78.125c0 0.86328-0.69922 1.5625-1.5625 1.5625h-59.375c-0.86328 0-1.5625-0.69922-1.5625-1.5625v-78.125c0-0.86328 0.69922-1.5625 1.5625-1.5625h59.375c0.86328 0 1.5625 0.69922 1.5625 1.5625zm-32.812 75h25c0.86328 0 1.5625-0.69922 1.5625-1.5625s-0.69922-1.5625-1.5625-1.5625h-25c-0.86328 0-1.5625 0.69922-1.5625 1.5625s0.69922 1.5625 1.5625 1.5625zm-7.8125-25c0-0.86328-0.69922-1.5625-1.5625-1.5625h-12.5c-0.86328 0-1.5625 0.69922-1.5625 1.5625v12.5c0 0.86328 0.69922 1.5625 1.5625 1.5625h12.5c0.86328 0 1.5625-0.69922 1.5625-1.5625zm7.8125 14.062h25c0.86328 0 1.5625-0.69922 1.5625-1.5625s-0.69922-1.5625-1.5625-1.5625h-25c-0.86328 0-1.5625 0.69922-1.5625 1.5625s0.69922 1.5625 1.5625 1.5625zm-10.938-12.5v9.375h-9.375v-9.375zm10.938 6.25h25c0.86328 0 1.5625-0.69922 1.5625-1.5625s-0.69922-1.5625-1.5625-1.5625h-25c-0.86328 0-1.5625 0.69922-1.5625 1.5625s0.69922 1.5625 1.5625 1.5625zm0-6.25h25c0.86328 0 1.5625-0.69922 1.5625-1.5625s-0.69922-1.5625-1.5625-1.5625h-25c-0.86328 0-1.5625 0.69922-1.5625 1.5625s0.69922 1.5625 1.5625 1.5625zm-7.8125-23.438c0-0.86328-0.69922-1.5625-1.5625-1.5625h-12.5c-0.86328 0-1.5625 0.69922-1.5625 1.5625v12.5c0 0.86328 0.69922 1.5625 1.5625 1.5625h12.5c0.86328 0 1.5625-0.69922 1.5625-1.5625zm7.8125 14.062h25c0.86328 0 1.5625-0.69922 1.5625-1.5625s-0.69922-1.5625-1.5625-1.5625h-25c-0.86328 0-1.5625 0.69922-1.5625 1.5625s0.69922 1.5625 1.5625 1.5625zm-10.938-12.5v9.375h-9.375v-9.375zm10.938 6.25h25c0.86328 0 1.5625-0.69922 1.5625-1.5625s-0.69922-1.5625-1.5625-1.5625h-25c-0.86328 0-1.5625 0.69922-1.5625 1.5625s0.69922 1.5625 1.5625 1.5625zm0-6.25h25c0.86328 0 1.5625-0.69922 1.5625-1.5625s-0.69922-1.5625-1.5625-1.5625h-25c-0.86328 0-1.5625 0.69922-1.5625 1.5625s0.69922 1.5625 1.5625 1.5625zm-9.6484-25h-12.227c-0.39453 0-0.75391 0.14453-1.0273 0.38281-0.13672 0.12109-0.24609 0.25391-0.32812 0.40234-0.13281 0.22656-0.20703 0.49219-0.20703 0.77734v12.5c0 0.86328 0.69922 1.5625 1.5625 1.5625h12.5c0.86328 0 1.5625-0.69922 1.5625-1.5625v-11.398l2.75-3.2109c0.55859-0.65234 0.48438-1.6406-0.17188-2.2031-0.65234-0.55859-1.6406-0.48438-2.2031 0.17188zm9.6484 15.625h25c0.86328 0 1.5625-0.69922 1.5625-1.5625s-0.69922-1.5625-1.5625-1.5625h-25c-0.86328 0-1.5625 0.69922-1.5625 1.5625s0.69922 1.5625 1.5625 1.5625zm-20.312-9.6094v6.4844h9.375v-6.1953l-3.5 4.0859c-0.30469 0.35156-0.75 0.55469-1.2109 0.54688-0.46875-0.007812-0.90625-0.22266-1.1953-0.58594zm20.312 3.3594h25c0.86328 0 1.5625-0.69922 1.5625-1.5625s-0.69922-1.5625-1.5625-1.5625h-25c-0.86328 0-1.5625 0.69922-1.5625 1.5625s0.69922 1.5625 1.5625 1.5625zm-15.586-2.4492 3.2617-3.8008h-6.3008zm15.586-3.8008h25c0.86328 0 1.5625-0.69922 1.5625-1.5625s-0.69922-1.5625-1.5625-1.5625h-25c-0.86328 0-1.5625 0.69922-1.5625 1.5625s0.69922 1.5625 1.5625 1.5625z"/>
<text fill="#000000" font-family="Arbeit Regular, Helvetica, Arial-Unicode, Arial, Sans-serif" font-weight="bold" font-size="5.0" y="117.5" x="0.0">Created by Liez Art</text><text fill="#000000" font-family="Arbeit Regular, Helvetica, Arial-Unicode, Arial, Sans-serif" font-weight="bold" font-size="5.0" y="122.5" x="0.0">from Noun Project</text></svg>